<svg width="35" height="35" viewBox="0 0 35 35" fill="none" xmlns="http://www.w3.org/2000/svg">
<g clip-path="url(#clip0)">
<path d="M6.38867 33.7293C12.3611 34.3267 17.2086 34.3334 17.2565 34.3334H18.4708C18.5188 34.3334 23.3705 34.3261 29.3387 33.7293C31.0757 33.5557 32.3374 32.9 33.0884 31.7804C34.2948 29.9814 33.9208 27.4405 33.6749 26.6136C31.828 20.4116 30.587 6.94702 30.1389 1.44509C30.0904 0.814103 29.5617 0.328361 28.9289 0.333413H27.567L27.564 0.426913C27.312 9.54013 22.3565 13.6906 17.8637 13.6906C13.3708 13.6906 8.42199 9.54499 8.16396 0.445735V0.428127V0.33402H6.79849C6.16566 0.328969 5.63695 0.81471 5.58846 1.4457C5.14039 6.94702 3.89939 20.4116 2.05246 26.6136C1.80656 27.4405 1.43256 29.9814 2.63896 31.7804C3.38999 32.9 4.65164 33.5557 6.38867 33.7293ZM29.0958 31.3129C30.5748 31.1647 30.9482 30.6098 31.0702 30.4271C31.6531 29.5582 31.5347 27.9378 31.3459 27.307C31.258 26.9885 31.4409 26.6582 31.7575 26.5637C32.074 26.4692 32.4081 26.6452 32.5092 26.9597C32.7454 27.749 32.9506 29.8041 32.0787 31.104C31.8771 31.404 31.2645 32.3183 29.2166 32.5211C29.1965 32.5233 29.1762 32.5243 29.1559 32.5241C28.8206 32.5409 28.5352 32.2827 28.5184 31.9473C28.5017 31.612 28.7599 31.3266 29.0952 31.3098L29.0958 31.3129ZM3.21696 26.9597C3.31808 26.6452 3.65209 26.4692 3.96864 26.5637C4.28519 26.6582 4.46808 26.9885 4.38024 27.307C4.19142 27.9408 4.07303 29.5582 4.65528 30.4271C4.77671 30.6092 5.15131 31.1647 6.63031 31.3129C6.96563 31.3296 7.22387 31.6151 7.2071 31.9504C7.19033 32.2857 6.90492 32.5439 6.5696 32.5272C6.54932 32.5274 6.52905 32.5263 6.50889 32.5241C4.46099 32.3195 3.84839 31.407 3.64681 31.1077C2.77556 29.8041 2.98078 27.7508 3.21696 26.9597Z" fill="#148342"/>
<path d="M17.8636 12.4762C20.6189 12.4762 23.5671 10.6062 25.1639 6.62762C23.2653 8.62659 20.6204 9.74532 17.8636 9.71555C15.1073 9.74525 12.4628 8.62701 10.564 6.62884C12.1608 10.6062 15.1084 12.4762 17.8636 12.4762Z" fill="#148342"/>
</g>
<defs>
<clipPath id="clip0">
<rect width="34" height="34" fill="white" transform="translate(0.863647 0.333374)"/>
</clipPath>
</defs>
</svg>
