<svg width="41" height="36" viewBox="0 0 41 36" fill="none" xmlns="http://www.w3.org/2000/svg">
<path d="M31.7204 26.9605H16.0439L15.1336 23.4298H35.6882L40.1746 6.02802H10.6473L9.0932 0H0.69812V2.49719H7.08252L13.421 27.0823C11.5664 27.5287 10.1874 29.1561 10.1874 31.0906C10.1874 33.368 12.0981 35.2208 14.4467 35.2208C16.7951 35.2208 18.7059 33.368 18.7059 31.0906C18.7059 30.5108 18.5815 29.9588 18.3581 29.4576H27.8091C27.5857 29.9588 27.4613 30.5108 27.4613 31.0906C27.4613 33.368 29.3719 35.2208 31.7205 35.2208C34.069 35.2208 35.9797 33.368 35.9797 31.0906C35.9796 28.8134 34.069 26.9605 31.7204 26.9605ZM22.8288 20.9326H19.9698L19.3311 15.9774H22.8289V20.9326H22.8288ZM32.4576 8.52513H36.8763L35.5989 13.4803H31.8189L32.4576 8.52513ZM31.497 15.9775H34.955L33.6776 20.9326H30.8583L31.497 15.9775ZM25.4039 8.52513H29.8623L29.2236 13.4803H25.404V8.52513H25.4039ZM25.4039 15.9774H28.9017L28.263 20.9326H25.404V15.9774H25.4039ZM22.8288 8.52513V13.4803H19.0092L18.3705 8.52513H22.8288ZM11.2911 8.52513H15.7752L16.4139 13.4803H12.5686L11.2911 8.52513ZM13.2124 15.9774H16.7359L17.3746 20.9326H14.4899L13.2124 15.9774ZM14.4467 32.7237C13.5181 32.7237 12.7627 31.9912 12.7627 31.0907C12.7627 30.1903 13.5181 29.4577 14.4467 29.4577C15.3752 29.4577 16.1307 30.1903 16.1307 31.0907C16.1307 31.9912 15.3752 32.7237 14.4467 32.7237ZM31.7204 32.7237C30.7919 32.7237 30.0364 31.9912 30.0364 31.0907C30.0364 30.1903 30.7919 29.4577 31.7204 29.4577C32.649 29.4577 33.4044 30.1903 33.4044 31.0907C33.4044 31.9912 32.649 32.7237 31.7204 32.7237Z" fill="#148342"/>
</svg>
