<svg width="35" height="35" viewBox="0 0 35 35" fill="none" xmlns="http://www.w3.org/2000/svg">
<path d="M30.1851 28.584H4.6851C3.9031 28.584 3.26843 29.2187 3.26843 30.0007C3.26843 30.7827 3.9031 31.4174 4.6851 31.4174H30.1851C30.9671 31.4174 31.6018 30.7827 31.6018 30.0007C31.6018 29.2187 30.9671 28.584 30.1851 28.584Z" fill="#148342"/>
<path d="M13.4401 27.1659C14.5068 27.1659 15.5736 26.7593 16.3853 25.9476L27.0769 15.256C27.6308 14.7021 27.6308 13.8068 27.0769 13.2528L15.4135 1.58942C14.8596 1.0355 13.9642 1.0355 13.4103 1.58942L2.71732 12.2796C1.09382 13.9031 1.09382 16.5466 2.71732 18.1701L10.4934 25.9462C11.3066 26.7593 12.3733 27.1659 13.4401 27.1659ZM14.4119 4.59275L24.0722 14.253L23.9078 14.4173H4.63265C4.66665 14.3748 4.68224 14.3224 4.7219 14.2828L14.4119 4.59275Z" fill="#148342"/>
<path d="M24.5184 23.5081C24.5184 25.5254 26.1079 27.1673 28.0601 27.1673C30.0123 27.1673 31.6018 25.5254 31.6018 23.5081C31.6018 21.8818 29.5703 18.673 28.9469 17.7295C28.5545 17.1317 27.5657 17.1317 27.1733 17.7295C26.5499 18.673 24.5184 21.8818 24.5184 23.5081Z" fill="#148342"/>
</svg>
