<svg width="23" height="23" viewBox="0 0 23 23" fill="none" xmlns="http://www.w3.org/2000/svg">
<g clip-path="url(#clip0)">
<path d="M11.2861 0.607422C5.22084 0.607422 0.286133 5.54213 0.286133 11.6074C0.286133 17.6727 5.22084 22.6074 11.2861 22.6074C17.3514 22.6074 22.2861 17.6727 22.2861 11.6074C22.2861 5.54213 17.3514 0.607422 11.2861 0.607422ZM11.2861 21.2324C5.97882 21.2324 1.66114 16.9147 1.66114 11.6074C1.66114 6.3001 5.97882 1.98243 11.2861 1.98243C16.5935 1.98243 20.9111 6.3001 20.9111 11.6074C20.9111 16.9147 16.5935 21.2324 11.2861 21.2324Z" fill="#4DD0E1"/>
<path d="M11.9736 4.73242H10.5986V11.8921L14.925 16.2185L15.8972 15.2463L11.9736 11.3227V4.73242Z" fill="#4DD0E1"/>
</g>
<defs>
<clipPath id="clip0">
<rect width="22" height="22" fill="white" transform="translate(0.286133 0.607422)"/>
</clipPath>
</defs>
</svg>
