<svg width="26" height="27" viewBox="0 0 26 27" fill="none" xmlns="http://www.w3.org/2000/svg">
<g clip-path="url(#clip0)">
<path d="M12.6478 26.1628C19.6325 26.1628 25.2946 20.5006 25.2946 13.516C25.2946 6.53131 19.6325 0.869141 12.6478 0.869141C5.66318 0.869141 0.00100708 6.53131 0.00100708 13.516C0.00100708 20.5006 5.66318 26.1628 12.6478 26.1628Z" fill="#4E598F"/>
<path d="M25.2736 12.8094L19.3169 6.85086C19.2182 6.88075 18.972 6.76618 18.8638 6.78792C16.3089 7.21376 13.8391 6.78792 11.3694 7.46922C10.1771 7.80989 10.0919 9.25766 9.66609 10.1945C9.06997 11.8977 9.15513 13.7713 8.38862 15.3894C7.87766 16.4966 6.68535 17.1779 6.25951 18.4554C6.11748 18.9881 6.12588 19.6597 5.96527 20.1691L11.9419 26.1428C12.1753 26.1557 12.4102 26.1627 12.6468 26.1627C19.6314 26.1627 25.2936 20.5005 25.2936 13.5159C25.2937 13.2788 25.2866 13.0433 25.2736 12.8094Z" fill="#364270"/>
<path d="M17.9349 6.27734H7.35877C6.28137 6.27734 5.4079 7.15076 5.4079 8.22821V18.8044C5.4079 19.8819 6.28132 20.7552 7.35877 20.7552H12.5748L12.5838 15.5818H11.2396C11.0649 15.5818 10.9231 15.4405 10.9225 15.2658L10.916 13.5981C10.9153 13.4225 11.0576 13.2797 11.2331 13.2797H12.575V11.6683C12.575 9.7984 13.717 8.78018 15.3851 8.78018H16.7541C16.9291 8.78018 17.0712 8.92216 17.0712 9.09734V10.5035C17.0712 10.6786 16.9292 10.8206 16.7543 10.8206L15.9141 10.8211C15.007 10.8211 14.8312 11.2521 14.8312 11.8849V13.2799H16.8246C17.0147 13.2799 17.162 13.4458 17.1395 13.6343L16.9419 15.302C16.9231 15.4617 16.7877 15.5819 16.627 15.5819H14.8402L14.8312 20.7555H17.9349C19.0123 20.7555 19.8857 19.882 19.8857 18.8046V8.22821C19.8858 7.15081 19.0123 6.27734 17.9349 6.27734Z" fill="white"/>
<path d="M12.5748 20.7555L12.5838 15.582H12.5617V20.7555H12.5748Z" fill="white"/>
<path d="M17.9349 6.27734H12.5617V13.2796H12.575V11.6682C12.575 9.7983 13.7171 8.78008 15.3852 8.78008H16.7541C16.9291 8.78008 17.0712 8.92206 17.0712 9.09724V10.5034C17.0712 10.6785 16.9293 10.8205 16.7543 10.8205L15.9142 10.821C15.007 10.821 14.8312 11.252 14.8312 11.8848V13.2798H16.8246C17.0147 13.2798 17.162 13.4457 17.1396 13.6341L16.9419 15.3019C16.9231 15.4616 16.7877 15.5817 16.627 15.5817H14.8402L14.8312 20.7554H17.9349C19.0123 20.7554 19.8857 19.8819 19.8857 18.8045V8.22821C19.8858 7.15081 19.0123 6.27734 17.9349 6.27734Z" fill="#D1D1D1"/>
</g>
<defs>
<clipPath id="clip0">
<rect width="25.2937" height="25.2937" fill="white" transform="translate(0 0.869141)"/>
</clipPath>
</defs>
</svg>
