<svg width="27" height="26" viewBox="0 0 27 26" fill="none" xmlns="http://www.w3.org/2000/svg">
<rect x="0.875" width="26" height="26" rx="3" fill="#4E598F"/>
<path d="M18.5321 5.6582H7.95593C6.87854 5.6582 6.00507 6.53162 6.00507 7.60907V18.1852C6.00507 19.2627 6.87849 20.1361 7.95593 20.1361H13.172L13.181 14.9627H11.8368C11.6621 14.9627 11.5203 14.8214 11.5197 14.6467L11.5131 12.9789C11.5125 12.8034 11.6548 12.6606 11.8303 12.6606H13.1722V11.0492C13.1722 9.17926 14.3142 8.16104 15.9823 8.16104H17.3512C17.5263 8.16104 17.6684 8.30302 17.6684 8.4782V9.88432C17.6684 10.0595 17.5264 10.2015 17.3514 10.2015L16.5113 10.202C15.6041 10.202 15.4284 10.633 15.4284 11.2657V12.6608H17.4218C17.6119 12.6608 17.7592 12.8267 17.7367 13.0151L17.5391 14.6829C17.5202 14.8426 17.3848 14.9628 17.2241 14.9628H15.4374L15.4283 20.1364H18.532C19.6094 20.1364 20.4829 19.2629 20.4829 18.1855V7.60907C20.4829 6.53167 19.6095 5.6582 18.5321 5.6582Z" fill="white"/>
<path d="M13.1719 20.1363L13.181 14.9629H13.1588V20.1363H13.1719Z" fill="white"/>
</svg>
