<svg width="32" height="33" viewBox="0 0 32 33" fill="none" xmlns="http://www.w3.org/2000/svg">
<g clip-path="url(#clip0)">
<path d="M6.32296 0.968628H26.1873C29.2575 0.968628 31.7551 3.54682 31.7551 6.71607V27.2211C31.7551 30.3904 29.2575 32.9686 26.1873 32.9686H6.32296C3.25275 32.9686 0.755127 30.3904 0.755127 27.2212V6.71607C0.755127 3.54682 3.25275 0.968628 6.32296 0.968628ZM5.5571 25.9412H15.4923C16.3655 28.6093 20.0337 28.6134 20.9082 25.9412H26.9532C28.1594 25.9412 28.1597 24.0588 26.9532 24.0588H20.9082C20.035 21.3907 16.3668 21.3866 15.4923 24.0588H5.5571C4.35089 24.0588 4.35052 25.9412 5.5571 25.9412ZM5.5571 17.9098H7.7119C8.58511 20.5779 12.2533 20.582 13.1278 17.9098H26.9532C28.1594 17.9098 28.1597 16.0274 26.9532 16.0274H13.1278C12.2546 13.3593 8.58638 13.3553 7.71184 16.0274H5.55704C4.35088 16.0274 4.35052 17.9098 5.5571 17.9098ZM5.5571 9.87844H19.3825C20.2557 12.5466 23.9239 12.5506 24.7984 9.87844H26.9532C28.1594 9.87844 28.1597 7.99607 26.9532 7.99607H24.7984C23.9252 5.32794 20.257 5.32388 19.3825 7.99607H5.5571C4.35089 7.99607 4.35052 9.87844 5.5571 9.87844Z" fill="#148342"/>
<path d="M18.2005 23.9333C19.5677 23.9333 19.5669 26.0666 18.2005 26.0666C16.8333 26.0667 16.834 23.9333 18.2005 23.9333Z" fill="#148342"/>
<path d="M22.0907 7.87057C23.4579 7.87057 23.4572 10.0039 22.0907 10.0039C20.7236 10.0039 20.7243 7.87057 22.0907 7.87057Z" fill="#148342"/>
<path d="M10.4198 15.9019C11.787 15.9019 11.7863 18.0353 10.4198 18.0353C9.05258 18.0353 9.0533 15.9019 10.4198 15.9019Z" fill="#148342"/>
</g>
<defs>
<clipPath id="clip0">
<rect width="31" height="32" fill="white" transform="matrix(-1 0 0 1 31.7551 0.968628)"/>
</clipPath>
</defs>
</svg>
