<svg width="27" height="26" viewBox="0 0 27 26" fill="none" xmlns="http://www.w3.org/2000/svg">
<g clip-path="url(#clip0)">
<path d="M3.58332 0H24.1666C25.6624 0 26.875 1.21255 26.875 2.70832V23.2916C26.875 24.7874 25.6624 26 24.1667 26H3.58332C2.08755 26 0.875 24.7874 0.875 23.2917V2.70832C0.875 1.21255 2.08755 0 3.58332 0Z" fill="#F44336"/>
<path d="M16.4382 13.7677C16.0241 13.4821 15.6263 13.1735 15.2465 12.8436C15.3375 12.8198 15.4296 12.8057 15.5195 12.7754C16.5505 12.428 17.3901 11.6668 17.8368 10.6748C18.3192 9.59152 18.329 8.35632 17.8638 7.26553C17.5635 6.54409 17.088 5.90886 16.4804 5.41735H18.2083C18.5075 5.41735 18.75 5.17482 18.75 4.87567C18.75 4.57652 18.5075 4.33398 18.2083 4.33398H13.875C13.8453 4.33718 13.8159 4.34302 13.7873 4.3513C13.2584 4.32048 12.7285 4.39111 12.2262 4.5593C11.1948 4.90644 10.3547 5.66765 9.90787 6.65987C9.4254 7.74313 9.4156 8.97833 9.88081 10.0691C10.5775 11.7584 12.1865 12.8939 14.0116 12.9844C14.1404 13.2315 14.3121 13.4537 14.5186 13.6409C12.5956 13.9063 8.45837 14.8282 8.45837 17.8756C8.45837 19.2926 9.16144 21.6673 13.8751 21.6673C17.3677 21.6673 19.2917 20.1279 19.2917 17.334C19.2917 15.8174 17.71 14.6809 16.4382 13.7677ZM10.8839 9.65967C10.5328 8.84468 10.5367 7.92036 10.8948 7.10842C11.2183 6.38839 11.8271 5.83564 12.575 5.5831C12.8997 5.47225 13.2405 5.41623 13.5836 5.41735C15.0306 5.44614 16.3215 6.334 16.8661 7.67503C17.2172 8.49002 17.2133 9.41434 16.8553 10.2263C16.5317 10.9463 15.9229 11.4991 15.175 11.7516C13.4183 12.2762 11.5527 11.3667 10.8839 9.65967ZM13.875 20.584C10.9998 20.584 9.54169 19.6729 9.54169 17.8757C9.54169 15.0536 15.4719 14.6257 15.5314 14.6257C15.5946 14.6223 15.6566 14.6076 15.7145 14.5823L15.8055 14.6484C16.8769 15.4154 18.2083 16.3731 18.2083 17.334C18.2083 19.4898 16.7502 20.584 13.875 20.584Z" fill="#FAFAFA"/>
</g>
<defs>
<clipPath id="clip0">
<rect width="26" height="26" fill="white" transform="translate(0.875)"/>
</clipPath>
</defs>
</svg>
