<svg width="26" height="26" viewBox="0 0 26 26" fill="none" xmlns="http://www.w3.org/2000/svg">
<g clip-path="url(#clip0)">
<path d="M13.2124 25.8035C20.197 25.8035 25.8592 20.1413 25.8592 13.1566C25.8592 6.17196 20.197 0.509766 13.2124 0.509766C6.22769 0.509766 0.565491 6.17196 0.565491 13.1566C0.565491 20.1413 6.22769 25.8035 13.2124 25.8035Z" fill="#6C27B3"/>
<path d="M19.0769 7.07718C17.5658 7.26846 15.9903 7.26179 14.4047 7.11082C12.1904 6.94048 8.95419 5.91851 7.76188 7.96246C5.84647 11.2346 6.79118 15.4239 7.23753 19.1311L13.8938 25.7859C20.3352 25.4439 25.4976 20.2822 25.8407 13.8411L19.0769 7.07718Z" fill="#501A96"/>
<path d="M16.1383 5.91797H10.2864C7.90819 5.91797 5.97342 7.85274 5.97342 10.2309V16.0828C5.97342 18.4609 7.90819 20.3959 10.2864 20.3959H16.1383C18.5164 20.3959 20.4514 18.461 20.4514 16.0828V10.2309C20.4513 7.85274 18.5165 5.91797 16.1383 5.91797ZM18.9948 16.0829C18.9948 17.6605 17.7159 18.9394 16.1383 18.9394H10.2864C8.70884 18.9394 7.42993 17.6605 7.42993 16.0829V10.231C7.42993 8.6534 8.70884 7.37443 10.2864 7.37443H16.1383C17.7159 7.37443 18.9948 8.65345 18.9948 10.231V16.0829Z" fill="white"/>
<path d="M13.2124 9.41211C11.1477 9.41211 9.4678 11.092 9.4678 13.1567C9.4678 15.2212 11.1477 16.9011 13.2124 16.9011C15.2771 16.9011 16.9568 15.2214 16.9568 13.1567C16.9568 11.092 15.2771 9.41211 13.2124 9.41211ZM13.2124 15.4446C11.9487 15.4446 10.9243 14.4204 10.9243 13.1567C10.9243 11.893 11.9487 10.8686 13.2124 10.8686C14.476 10.8686 15.5003 11.8929 15.5003 13.1567C15.5003 14.4203 14.476 15.4446 13.2124 15.4446Z" fill="white"/>
<path d="M17.8612 9.44026C17.8612 9.93576 17.4595 10.3375 16.9639 10.3375C16.4684 10.3375 16.0667 9.93576 16.0667 9.44026C16.0667 8.94471 16.4684 8.54297 16.9639 8.54297C17.4596 8.54297 17.8612 8.94461 17.8612 9.44026Z" fill="#D1D1D1"/>
<path d="M16.1384 5.91797H13.184V7.37443H16.1384C17.7159 7.37443 18.9949 8.65345 18.9949 10.231V16.0829C18.9949 17.6605 17.7159 18.9394 16.1384 18.9394H13.184V20.3959H16.1384C18.5165 20.3959 20.4513 18.461 20.4513 16.0828V10.2309C20.4513 7.85274 18.5165 5.91797 16.1384 5.91797Z" fill="#D1D1D1"/>
<path d="M13.2124 9.41211C13.2028 9.41211 13.1936 9.4128 13.184 9.4128V10.8693C13.1935 10.8692 13.2028 10.8686 13.2124 10.8686C14.476 10.8686 15.5003 11.8929 15.5003 13.1567C15.5003 14.4203 14.4761 15.4446 13.2124 15.4446C13.2028 15.4446 13.1935 15.444 13.184 15.4439V16.9004C13.1936 16.9005 13.2028 16.9011 13.2124 16.9011C15.2771 16.9011 16.9568 15.2213 16.9568 13.1567C16.9568 11.092 15.2771 9.41211 13.2124 9.41211Z" fill="#D1D1D1"/>
</g>
<defs>
<clipPath id="clip0">
<rect width="25.2937" height="25.2937" fill="white" transform="translate(0.565491 0.509766)"/>
</clipPath>
</defs>
</svg>
