<svg width="22" height="23" viewBox="0 0 22 23" fill="none" xmlns="http://www.w3.org/2000/svg">
<path d="M20.0664 3.87305H1.93359C0.865262 3.87305 0 4.74368 0 5.80664V17.4082C0 18.4775 0.871621 19.3418 1.93359 19.3418H20.0664C21.1258 19.3418 22 18.4811 22 17.4082V5.80664C22 4.74557 21.1382 3.87305 20.0664 3.87305ZM19.7956 5.16211C19.4006 5.55506 12.602 12.3178 12.3673 12.5513C12.002 12.9166 11.5165 13.1176 11 13.1176C10.4835 13.1176 9.99797 12.9165 9.63153 12.5501C9.47366 12.3931 2.75013 5.70498 2.20438 5.16211H19.7956ZM1.28906 17.1458V6.06982L6.85945 11.6109L1.28906 17.1458ZM2.2052 18.0527L7.77339 12.5199L8.72124 13.4628C9.32993 14.0715 10.1392 14.4067 11 14.4067C11.8608 14.4067 12.6701 14.0715 13.2776 13.464L14.2266 12.5199L19.7948 18.0527H2.2052ZM20.7109 17.1458L15.1406 11.6109L20.7109 6.06982V17.1458Z" fill="#4DD0E1"/>
</svg>
