<svg width="22" height="23" viewBox="0 0 22 23" fill="none" xmlns="http://www.w3.org/2000/svg">
<g clip-path="url(#clip0)">
<path d="M11 0.925232C15.2647 0.925232 18.7344 4.39487 18.7344 8.65961C18.7344 10.1005 18.3352 11.5067 17.5798 12.7267L11.4403 22.6205C11.3227 22.8101 11.1155 22.9252 10.8926 22.9252C10.8909 22.9252 10.8892 22.9252 10.8875 22.9252C10.6627 22.9235 10.4551 22.8047 10.3397 22.6119L4.35656 12.6222C3.64285 11.428 3.26562 10.0578 3.26562 8.65961C3.26562 4.39487 6.73527 0.925232 11 0.925232ZM5.46279 11.9604L10.9024 21.0426L16.4842 12.0475C17.113 11.0321 17.4539 9.86058 17.4539 8.65961C17.4539 5.10566 14.5539 2.2057 11 2.2057C7.44605 2.2057 4.55039 5.10566 4.55039 8.65961C4.55039 9.82496 4.86883 10.9665 5.46279 11.9604Z" fill="#4DD0E1"/>
<path d="M11 4.79242C13.1324 4.79242 14.8672 6.52724 14.8672 8.65961C14.8672 10.7784 13.1606 12.5268 11 12.5268C8.81276 12.5268 7.13281 10.7551 7.13281 8.65961C7.13281 6.52724 8.86763 4.79242 11 4.79242ZM11 11.2463C12.429 11.2463 13.5867 10.0848 13.5867 8.65961C13.5867 7.23803 12.4216 6.07289 11 6.07289C9.57842 6.07289 8.41758 7.23803 8.41758 8.65961C8.41758 10.064 9.54834 11.2463 11 11.2463Z" fill="#4DD0E1"/>
</g>
<defs>
<clipPath id="clip0">
<rect width="22" height="22" fill="white" transform="matrix(-1 0 0 1 22 0.925232)"/>
</clipPath>
</defs>
</svg>
