<svg width="35" height="35" viewBox="0 0 35 35" fill="none" xmlns="http://www.w3.org/2000/svg">
<g clip-path="url(#clip0)">
<path d="M29.7267 0.500732C28.0922 0.500732 26.7086 1.59462 26.2632 3.09058H2.62648C2.22882 3.09058 1.86955 3.32689 1.7121 3.69186C1.55438 4.0571 1.62909 4.4807 1.90172 4.76993L7.03264 10.2121V29.4603C7.03264 32.2395 9.2863 34.5007 12.0567 34.5007H23.0801C25.8505 34.5007 28.1042 32.2395 28.1042 29.4603V4.12584C28.1042 3.22546 28.832 2.49292 29.7267 2.49292C30.6214 2.49292 31.349 3.22546 31.349 4.12584V17.4159C31.349 17.9661 31.7952 18.412 32.3451 18.412C32.8953 18.412 33.3412 17.9661 33.3412 17.4159V4.12584C33.3412 2.12691 31.7197 0.500732 29.7267 0.500732V0.500732ZM24.0526 28.1416C24.0526 28.6915 23.6064 29.1376 23.0565 29.1376C22.5063 29.1376 22.0604 28.6915 22.0604 28.1416V27.1452H15.0004C14.4502 27.1452 14.0043 26.6993 14.0043 26.1491C14.0043 25.5989 14.4502 25.153 15.0004 25.153H22.0604V23.1006H19.0286C18.4784 23.1006 18.0325 22.6547 18.0325 22.1046C18.0325 21.5546 18.4784 21.1085 19.0286 21.1085H22.0604V19.0564H19.0286C18.4784 19.0564 18.0325 18.6104 18.0325 18.0603C18.0325 17.5101 18.4784 17.0642 19.0286 17.0642H22.0604V15.0118H15.0004C14.4502 15.0118 14.0043 14.5659 14.0043 14.0157C14.0043 13.4655 14.4502 13.0196 15.0004 13.0196H22.0604V12.0235C22.0604 11.4733 22.5063 11.0274 23.0565 11.0274C23.6064 11.0274 24.0526 11.4733 24.0526 12.0235V28.1416Z" fill="#148342"/>
</g>
<defs>
<clipPath id="clip0">
<rect width="34" height="34" fill="white" transform="translate(0.435059 0.500732)"/>
</clipPath>
</defs>
</svg>
