<svg width="27" height="26" viewBox="0 0 27 26" fill="none" xmlns="http://www.w3.org/2000/svg">
<g clip-path="url(#clip0)">
<path d="M13.8891 10.3972C15.3404 10.3925 16.4963 9.2272 16.491 7.77259C16.4852 6.31797 15.3274 5.15931 13.8755 5.1582C12.4115 5.15682 11.2423 6.33623 11.2537 7.80412C11.2645 9.2532 12.4334 10.4033 13.8891 10.3972Z" fill="#F79637"/>
<path d="M25.492 0H2.25798C1.4943 0 0.875 0.619021 0.875 1.38298V24.617C0.875 25.381 1.4943 26 2.25798 26H25.492C26.256 26 26.875 25.381 26.875 24.617V1.38298C26.875 0.619021 26.256 0 25.492 0ZM13.8971 2.42464C16.8564 2.43211 19.2324 4.85343 19.2177 7.84647C19.202 10.7701 16.7873 13.14 13.8327 13.13C10.9074 13.12 8.50877 10.6951 8.52536 7.76515C8.54279 4.80308 10.9431 2.41579 13.8971 2.42464ZM19.8918 15.2327C19.2374 15.9051 18.4496 16.3908 17.5745 16.7307C16.7472 17.0505 15.8408 17.2126 14.9435 17.3199C15.079 17.4676 15.1429 17.5392 15.227 17.6247C16.4451 18.8486 17.6682 20.0676 18.8822 21.2951C19.2954 21.713 19.3829 22.2317 19.1547 22.7182C18.9054 23.2506 18.3481 23.6 17.801 23.5624C17.4547 23.538 17.1847 23.3657 16.9452 23.1248C16.0258 22.1996 15.089 21.2918 14.1889 20.3503C13.927 20.0759 13.8009 20.127 13.5691 20.3657C12.6444 21.3178 11.7054 22.2552 10.7603 23.187C10.3357 23.6058 9.83089 23.6807 9.33772 23.442C8.8144 23.1884 8.48194 22.6543 8.50766 22.1169C8.52536 21.754 8.70404 21.4768 8.95325 21.2279C10.1581 20.0244 11.3602 18.8179 12.5628 17.6122C12.6428 17.5326 12.7169 17.4471 12.8328 17.3232C11.1929 17.152 9.71417 16.7487 8.44874 15.7585C8.29191 15.6354 8.12955 15.5165 7.98572 15.3787C7.43198 14.8466 7.37638 14.2378 7.81479 13.6096C8.1893 13.0725 8.81938 12.9281 9.47353 13.2365C9.60049 13.296 9.72109 13.3709 9.8367 13.4509C12.1955 15.0717 15.4364 15.1168 17.8043 13.5244C18.0386 13.3455 18.2895 13.1972 18.5804 13.1236C19.1461 12.9784 19.6722 13.1856 19.9759 13.6801C20.3236 14.2436 20.3188 14.7946 19.8918 15.2327Z" fill="#F79637"/>
</g>
<defs>
<clipPath id="clip0">
<rect x="0.875" width="26" height="26" rx="3" fill="white"/>
</clipPath>
</defs>
</svg>
