<svg width="26" height="27" viewBox="0 0 26 27" fill="none" xmlns="http://www.w3.org/2000/svg">
<g clip-path="url(#clip0)">
<path d="M13.2243 11.3501C14.4319 11.3457 15.3937 10.3756 15.3893 9.16537C15.3849 7.95463 14.421 6.99127 13.2129 6.99024C11.9946 6.98894 11.0217 7.97016 11.031 9.19176C11.0401 10.3976 12.0127 11.3545 13.2243 11.3501Z" fill="url(#paint0_linear)"/>
<path d="M13.2124 0.869141C6.22767 0.869141 0.565491 6.53157 0.565491 13.516C0.565491 20.5004 6.22767 26.1629 13.2124 26.1629C20.1971 26.1629 25.8592 20.5004 25.8592 13.516C25.8592 6.53157 20.1971 0.869141 13.2124 0.869141ZM13.2305 4.71508C15.6939 4.72181 17.671 6.73677 17.6584 9.22733C17.6459 11.6604 15.6364 13.6325 13.1772 13.6242C10.743 13.6159 8.74669 11.5978 8.76118 9.15979C8.77489 6.69511 10.7723 4.70835 13.2305 4.71508ZM18.2199 15.3744C17.6752 15.9336 17.0195 16.3383 16.2913 16.6206C15.603 16.8874 14.8488 17.0217 14.102 17.1112C14.2151 17.2339 14.2681 17.2942 14.3385 17.3645C15.3518 18.3833 16.37 19.3968 17.3799 20.4184C17.7241 20.7667 17.7958 21.1983 17.6064 21.6028C17.3996 22.0452 16.9356 22.3361 16.4805 22.3048C16.1922 22.2848 15.9674 22.1418 15.7679 21.9407C15.003 21.1712 14.2236 20.4153 13.4747 19.6313C13.2561 19.403 13.1516 19.4465 12.9588 19.6447C12.1895 20.437 11.4075 21.2167 10.6211 21.9922C10.2679 22.3405 9.84771 22.4036 9.43783 22.2044C9.00234 21.9937 8.72547 21.5489 8.74669 21.1015C8.7617 20.7998 8.91022 20.5685 9.11775 20.362C10.121 19.3609 11.1211 18.3566 12.1214 17.3532C12.1879 17.2867 12.2495 17.216 12.346 17.1125C10.9816 16.9699 9.75119 16.6341 8.69778 15.8104C8.56685 15.708 8.43204 15.6091 8.31301 15.4942C7.85164 15.0515 7.80532 14.5441 8.16991 14.0219C8.48224 13.5747 9.00597 13.4552 9.55065 13.7121C9.65623 13.7616 9.75663 13.8242 9.85289 13.8904C11.8158 15.2393 14.5126 15.2764 16.4833 13.9507C16.6784 13.8017 16.8873 13.679 17.1292 13.6172C17.5991 13.4961 18.038 13.6692 18.29 14.0806C18.5785 14.5508 18.5751 15.0093 18.2199 15.3744Z" fill="url(#paint1_linear)"/>
</g>
<defs>
<linearGradient id="paint0_linear" x1="13.2101" y1="6.99023" x2="13.2101" y2="11.3501" gradientUnits="userSpaceOnUse">
<stop stop-color="#FFBC64"/>
<stop offset="1" stop-color="#CB7300"/>
</linearGradient>
<linearGradient id="paint1_linear" x1="13.2124" y1="0.869141" x2="13.2124" y2="26.1629" gradientUnits="userSpaceOnUse">
<stop stop-color="#FFBC64"/>
<stop offset="1" stop-color="#CB7300"/>
</linearGradient>
<clipPath id="clip0">
<rect width="25.2937" height="25.2937" fill="white" transform="translate(0.565491 0.869141)"/>
</clipPath>
</defs>
</svg>
