<svg width="35" height="34" viewBox="0 0 35 34" fill="none" xmlns="http://www.w3.org/2000/svg">
<g clip-path="url(#clip0)">
<path d="M20.7393 28.1648C20.7393 31.3824 23.3571 34.0001 26.5746 34.0001C29.7922 34.0001 32.41 31.3824 32.41 28.1648C32.41 24.9471 29.7922 22.3295 26.5746 22.3295C23.3571 22.3295 20.7393 24.9472 20.7393 28.1648ZM23.1533 26.1521L24.5619 24.7434L26.5746 26.7561L28.5874 24.7434L29.996 26.1521L27.9833 28.1648L29.996 30.1775L28.5874 31.5862L26.5746 29.5734L24.5619 31.5862L23.1533 30.1775L25.166 28.1648L23.1533 26.1521Z" fill="#148342"/>
<path d="M13.0182 9.7617H17.3539C18.2906 9.7617 19.0526 8.99964 19.0526 8.06293V5.43237H11.3195V8.06293C11.3195 8.99964 12.0815 9.7617 13.0182 9.7617Z" fill="#148342"/>
<path d="M18.7472 28.1648C18.7472 23.9155 22.1508 20.4462 26.3749 20.3398L25.7059 0.00012207H21.0448V8.06288C21.0448 10.0981 19.3891 11.7538 17.3539 11.7538H13.0183C10.9831 11.7538 9.32736 10.0981 9.32736 8.06288V0.00012207H4.72749L3.31738 29.9986H18.9647C18.8229 29.4101 18.7472 28.7962 18.7472 28.1648Z" fill="#148342"/>
</g>
<defs>
<clipPath id="clip0">
<rect width="34" height="34" fill="white" transform="translate(0.863647 0.00012207)"/>
</clipPath>
</defs>
</svg>
