<svg width="33" height="136" viewBox="0 0 33 136" fill="none" xmlns="http://www.w3.org/2000/svg">
<path d="M11.0151 22.974C10.9618 22.8774 10.9348 22.7679 10.937 22.6569C10.9391 22.5459 10.9703 22.4376 11.0272 22.3433L12.9397 19.1023C12.952 19.0821 12.9662 19.0633 12.9822 19.0461L12.3205 17.9221L10.9605 17.6473L9.2301 20.5761L12.3144 25.7903H14.8279V23.2924H11.5433C11.4356 23.2928 11.3298 23.2634 11.2369 23.2074C11.144 23.1514 11.0674 23.0708 11.0151 22.974Z" fill="#148342"/>
<path d="M16.1333 13.9567C16.187 13.8653 16.2627 13.7897 16.3531 13.7372C16.4435 13.6847 16.5456 13.6571 16.6494 13.6571C16.7532 13.6571 16.8553 13.6847 16.9457 13.7372C17.0361 13.7897 17.1118 13.8653 17.1655 13.9567L18.7562 16.6418L20.0919 16.3483L20.6808 15.293C20.6653 15.271 20.6511 15.2481 20.6383 15.2243L19.1265 12.6765H14.1723L12.8123 14.9683L14.7248 16.3296L16.1333 13.9567Z" fill="#148342"/>
<path d="M16.6493 8.92981C14.6079 8.92981 12.6124 9.55242 10.915 10.7189C9.21768 11.8854 7.89476 13.5434 7.11356 15.4831C6.33235 17.4229 6.12795 19.5574 6.52621 21.6167C6.92446 23.676 7.90748 25.5675 9.35096 27.0522C10.7944 28.5368 12.6335 29.5479 14.6357 29.9575C16.6379 30.3671 18.7132 30.1569 20.5991 29.3534C22.4851 28.5499 24.0971 27.1893 25.2313 25.4435C26.3654 23.6977 26.9707 21.6453 26.9707 19.5457C26.9669 16.7314 25.8782 14.0335 23.9434 12.0435C22.0086 10.0535 19.3855 8.93377 16.6493 8.92981V8.92981ZM11.4825 14.8247L13.31 11.7274C13.364 11.6362 13.4397 11.5608 13.5301 11.5084C13.6204 11.4559 13.7223 11.4281 13.8261 11.4277H19.4725C19.5763 11.4281 19.6782 11.4559 19.7685 11.5084C19.8589 11.5608 19.9346 11.6362 19.9886 11.7274L21.3304 13.9942L21.5793 13.8131C21.6908 13.7289 21.8271 13.6868 21.9652 13.6936C22.1034 13.7004 22.2351 13.7558 22.3382 13.8506C22.4422 13.9468 22.511 14.0767 22.5331 14.2188C22.5552 14.3608 22.5293 14.5064 22.4597 14.6311L21.0086 17.2164C20.9649 17.2916 20.9068 17.3568 20.838 17.4084C20.7691 17.4599 20.6909 17.4965 20.6079 17.5162L17.7665 18.1344C17.7247 18.1447 17.6818 18.1489 17.639 18.1469C17.5112 18.147 17.3868 18.1055 17.2835 18.0282C17.1802 17.951 17.1034 17.842 17.0643 17.7169C17.0251 17.5919 17.0256 17.4573 17.0655 17.3326C17.1055 17.2078 17.183 17.0994 17.2868 17.0228L17.475 16.8792L16.6493 15.4867L15.429 17.5474C15.3858 17.6198 15.3284 17.6822 15.2604 17.7306C15.1925 17.779 15.1155 17.8123 15.0343 17.8284C14.9544 17.8478 14.8714 17.8495 14.7907 17.8334C14.7101 17.8172 14.6338 17.7836 14.5668 17.7347L11.6525 15.6615C11.5261 15.5704 11.4381 15.4332 11.4065 15.2777C11.3749 15.1223 11.4021 14.9603 11.4825 14.8247V14.8247ZM21.8404 26.7394C21.787 26.8312 21.7114 26.9071 21.6209 26.9596C21.5305 27.0122 21.4282 27.0396 21.3243 27.0392H18.4707V27.3514C18.4711 27.4945 18.4236 27.6334 18.3363 27.7448C18.249 27.8562 18.1271 27.9333 17.9911 27.9634C17.9489 27.9706 17.9063 27.9748 17.8636 27.9759C17.7468 27.9756 17.6326 27.9407 17.5346 27.8754C17.4366 27.81 17.359 27.717 17.3111 27.6074L16.0968 24.7974C16.0608 24.7171 16.0421 24.6297 16.0422 24.5413V26.4147C16.0422 26.5803 15.9782 26.7392 15.8643 26.8563C15.7505 26.9734 15.596 27.0392 15.435 27.0392H11.9743C11.8704 27.0396 11.7682 27.0122 11.6777 26.9596C11.5872 26.9071 11.5116 26.8312 11.4582 26.7394L8.0036 20.8945C7.94411 20.7984 7.91252 20.6868 7.91252 20.5729C7.91252 20.459 7.94411 20.3474 8.0036 20.2513L9.65503 17.4537L9.41824 17.2851C9.30501 17.2024 9.22275 17.0823 9.18519 16.9448C9.14762 16.8073 9.15702 16.6607 9.21181 16.5295C9.26374 16.3961 9.3599 16.2859 9.48325 16.2185C9.60661 16.1511 9.7492 16.1307 9.88574 16.1611L12.8182 16.7481C12.9018 16.764 12.9812 16.7978 13.0513 16.8473C13.1214 16.8968 13.1805 16.9608 13.225 17.0353L14.7672 19.6705C14.8406 19.7931 14.8705 19.9381 14.8519 20.0807C14.8334 20.2234 14.7674 20.3552 14.6653 20.4536C14.5632 20.5521 14.4311 20.6112 14.2914 20.621C14.1518 20.6307 14.0131 20.5906 13.899 20.5073L13.6379 20.32L12.624 22.0435H15.435C15.596 22.0435 15.7505 22.1093 15.8643 22.2264C15.9782 22.3435 16.0422 22.5023 16.0422 22.668V24.5413C16.0421 24.4529 16.0608 24.3656 16.0968 24.2853L17.3111 21.4752C17.3685 21.3457 17.4672 21.2402 17.5908 21.1762C17.7145 21.1123 17.8557 21.0937 17.991 21.1236C18.1264 21.1535 18.2477 21.23 18.3349 21.3405C18.4222 21.451 18.4701 21.5889 18.4707 21.7313V22.0435H20.6747L19.1872 19.5269C19.1073 19.3906 19.0811 19.2281 19.1138 19.0726C19.1466 18.9171 19.2358 18.7803 19.3632 18.6901L22.3625 16.5545C22.4302 16.5056 22.5069 16.4716 22.5878 16.4545C22.6688 16.4375 22.7523 16.4377 22.8332 16.4553C22.9141 16.4729 22.9906 16.5074 23.0579 16.5567C23.1253 16.606 23.182 16.669 23.2247 16.7418L25.295 20.2513C25.3545 20.3474 25.3861 20.459 25.3861 20.5729C25.3861 20.6868 25.3545 20.7984 25.295 20.8945L21.8404 26.7394Z" fill="#148342"/>
<path d="M31.8279 0.187408H28.6161C28.4714 0.185951 28.331 0.238166 28.2206 0.334496C28.1102 0.430825 28.0372 0.564823 28.0151 0.711957C28.0119 0.737584 28.0058 0.762736 27.9968 0.786892L26.5093 6.13854C26.4366 6.57209 26.2167 6.96505 25.8887 7.24748C25.5608 7.52992 25.146 7.68353 24.7183 7.68097H24.5422C24.0596 7.67948 23.5971 7.48163 23.2559 7.13063C22.9146 6.77962 22.7222 6.30397 22.7208 5.80758V4.55865C22.7208 4.39303 22.6568 4.2342 22.543 4.11709C22.4291 3.99998 22.2747 3.93419 22.1136 3.93419H11.1851C11.024 3.93419 10.8696 3.99998 10.7558 4.11709C10.6419 4.2342 10.5779 4.39303 10.5779 4.55865V5.80758C10.5765 6.30397 10.3841 6.77962 10.0429 7.13063C9.70158 7.48163 9.23913 7.67948 8.7565 7.68097H8.58043C8.15268 7.68353 7.73793 7.52992 7.40996 7.24748C7.08199 6.96505 6.86208 6.57209 6.78936 6.13854L5.30186 0.786892C5.29295 0.762736 5.28684 0.737584 5.28364 0.711957C5.26147 0.564823 5.18851 0.430825 5.07813 0.334496C4.96775 0.238166 4.82733 0.185951 4.68257 0.187408H1.47079C1.30977 0.187408 1.15534 0.253199 1.04148 0.370309C0.927614 0.487418 0.863647 0.646253 0.863647 0.811871V34.5329C0.863647 34.6985 0.927614 34.8573 1.04148 34.9744C1.15534 35.0916 1.30977 35.1573 1.47079 35.1573H5.11365C5.20779 35.1567 5.30052 35.1338 5.38473 35.0905C5.46893 35.0472 5.54236 34.9846 5.59936 34.9076L6.69222 33.4089C6.86227 33.1766 7.08235 32.9881 7.33517 32.8581C7.588 32.728 7.86669 32.6601 8.14936 32.6595H25.1493C25.432 32.6601 25.7107 32.728 25.9635 32.8581C26.2164 32.9881 26.4364 33.1766 26.6065 33.4089L27.6993 34.9076C27.7563 34.9846 27.8298 35.0472 27.914 35.0905C27.9982 35.1338 28.0909 35.1567 28.1851 35.1573H31.8279C31.9889 35.1573 32.1434 35.0916 32.2572 34.9744C32.3711 34.8573 32.4351 34.6985 32.4351 34.5329V0.811871C32.4351 0.646253 32.3711 0.487418 32.2572 0.370309C32.1434 0.253199 31.9889 0.187408 31.8279 0.187408V0.187408ZM11.7922 5.18311H21.5065V6.43204H11.7922V5.18311ZM2.07793 2.0608C2.07793 1.89518 2.1419 1.73634 2.25576 1.61924C2.36962 1.50213 2.52405 1.43633 2.68507 1.43633H3.66925C3.79856 1.43619 3.92454 1.47852 4.02883 1.55714C4.13312 1.63577 4.21028 1.74659 4.24907 1.87346L5.57022 6.26031L4.41057 6.63L3.29222 2.91943V12.6767H2.07793V2.0608ZM8.14936 31.4106C7.67828 31.4117 7.21386 31.5251 6.79251 31.7418C6.37116 31.9585 6.00434 32.2726 5.72079 32.6595L4.99222 33.6586C4.93566 33.7362 4.86233 33.7991 4.77802 33.8425C4.69372 33.8859 4.60076 33.9084 4.5065 33.9084H2.68507C2.52405 33.9084 2.36962 33.8426 2.25576 33.7255C2.1419 33.6084 2.07793 33.4496 2.07793 33.284V29.5372H3.29222V32.6595H4.20293L4.74936 31.9101C5.14644 31.3686 5.66002 30.9289 6.24988 30.6256C6.83974 30.3222 7.48987 30.1634 8.14936 30.1616V31.4106ZM16.6494 31.4106C14.3678 31.4106 12.1375 30.7147 10.2405 29.411C8.34342 28.1073 6.86486 26.2542 5.99175 24.0862C5.11864 21.9182 4.89019 19.5326 5.3353 17.2311C5.78041 14.9295 6.87908 12.8154 8.49238 11.1561C10.1057 9.49676 12.1611 8.36675 14.3988 7.90895C16.6366 7.45114 18.956 7.6861 21.0639 8.58412C23.1718 9.48214 24.9734 11.0029 26.2409 12.954C27.5085 14.9052 28.1851 17.1991 28.1851 19.5458C28.1823 22.6916 26.9661 25.7079 24.8033 27.9323C22.6405 30.1568 19.708 31.4078 16.6494 31.4106V31.4106ZM31.2208 33.284C31.2208 33.4496 31.1568 33.6084 31.0429 33.7255C30.9291 33.8426 30.7747 33.9084 30.6136 33.9084H28.7922C28.6979 33.9084 28.605 33.8859 28.5207 33.8425C28.4364 33.7991 28.363 33.7362 28.3065 33.6586L27.5779 32.6595C27.2942 32.2727 26.9274 31.9587 26.5061 31.742C26.0847 31.5254 25.6204 31.4119 25.1493 31.4106V30.1616C25.8088 30.1635 26.4589 30.3223 27.0488 30.6256C27.6386 30.929 28.1522 31.3686 28.5493 31.9101L29.0958 32.6595H30.0065V29.5372H31.2208V33.284ZM31.2208 12.6767H30.0065V2.91694L28.8966 6.57754L27.7376 6.20286L29.0502 1.87346C29.089 1.74659 29.1662 1.63577 29.2705 1.55714C29.3748 1.47852 29.5008 1.43619 29.6301 1.43633H30.6136C30.7747 1.43633 30.9291 1.50213 31.0429 1.61924C31.1568 1.73634 31.2208 1.89518 31.2208 2.0608V12.6767Z" fill="#148342"/>
</svg>
