<svg width="35" height="35" viewBox="0 0 35 35" fill="none" xmlns="http://www.w3.org/2000/svg">
<path d="M29.5516 4.40675C29.5516 4.39964 29.5511 4.39254 29.5511 4.3855V2.79175H25.3011V3.85425H28.4886V4.91675H25.266L24.821 11.3988C24.7988 11.8005 24.6235 12.1785 24.3312 12.455C24.0389 12.7315 23.6519 12.8855 23.2495 12.8855H22.4816C21.9528 12.8872 21.4357 12.7296 20.9978 12.4331C20.5599 12.1366 20.2214 11.7151 20.0266 11.2234C19.9101 10.9293 19.7077 10.6772 19.4458 10.4998C19.1838 10.3225 18.8745 10.2282 18.5582 10.2292H17.1691C16.8528 10.2282 16.5435 10.3225 16.2815 10.4998C16.0196 10.6772 15.8172 10.9293 15.7007 11.2234C15.5059 11.7151 15.1674 12.1366 14.7295 12.4331C14.2916 12.7296 13.7745 12.8872 13.2457 12.8855H12.4781C12.0758 12.8855 11.6887 12.7314 11.3965 12.4549C11.1042 12.1784 10.9289 11.8005 10.9067 11.3988L10.4274 4.42189C10.4265 4.4098 10.4261 4.39765 10.4261 4.3855V2.79175H6.17615V3.85425H9.36365V4.91675H6.1553L5.1353 30.4167H29.5511V31.4792H5.11365V32.0757C5.11379 32.1993 5.16294 32.3177 5.25033 32.4051C5.33771 32.4925 5.45618 32.5416 5.57975 32.5417H30.1475C30.2711 32.5416 30.3896 32.4925 30.477 32.4051C30.5644 32.3177 30.6135 32.1993 30.6136 32.0757V30.9586L29.5516 4.40675ZM14.6603 20.1942L14.9003 21.1541L17.4216 17.372C17.4712 17.2985 17.5383 17.2384 17.6168 17.1972C17.6953 17.1559 17.7827 17.1347 17.8714 17.1355C17.9602 17.1368 18.0472 17.1603 18.1246 17.2039C18.2019 17.2475 18.2671 17.3098 18.3141 17.3851L19.3102 18.9789L18.4092 19.542L17.8492 18.646L15.6688 21.9167H16.8011V22.9792H14.6761C14.5577 22.9792 14.4426 22.9396 14.3492 22.8667C14.2558 22.7938 14.1895 22.6918 14.1608 22.5768L13.6295 20.4518L14.6603 20.1942ZM19.3021 26.5426L17.7083 28.1364L16.957 27.385L17.6436 26.698H12.5511C12.4563 26.698 12.3632 26.6726 12.2815 26.6245C12.1998 26.5764 12.1325 26.5072 12.0865 26.4243C12.0405 26.3413 12.0176 26.2476 12.0201 26.1528C12.0226 26.058 12.0504 25.9656 12.1006 25.8852L13.1631 24.1852L14.0641 24.7483L13.5097 25.6355H17.6436L16.9567 24.9487L17.7081 24.1973L19.3018 25.7911C19.3511 25.8404 19.3903 25.899 19.417 25.9634C19.4437 26.0279 19.4574 26.097 19.4574 26.1667C19.4574 26.2365 19.4437 26.3056 19.417 26.3701C19.3903 26.4345 19.3511 26.4931 19.3018 26.5424L19.3021 26.5426ZM23.645 26.4176C23.5996 26.5024 23.532 26.5733 23.4494 26.6227C23.3668 26.6721 23.2724 26.6981 23.1761 26.698H21.0511V25.6355H22.1835L20.2577 22.7473L19.978 24.1459L18.9361 23.9376L19.4674 21.2813C19.481 21.2129 19.5081 21.1478 19.5469 21.0899C19.5857 21.0319 19.6356 20.9821 19.6936 20.9434C19.7517 20.9047 19.8168 20.8779 19.8852 20.8643C19.9537 20.8508 20.0241 20.8509 20.0925 20.8645L22.7488 21.3958L22.5404 22.4377L21.1418 22.1579L23.6178 25.872C23.6712 25.952 23.7019 26.045 23.7066 26.141C23.7113 26.2371 23.6899 26.3326 23.6446 26.4174L23.645 26.4176Z" fill="#148342"/>
</svg>
