<svg width="27" height="30" viewBox="0 0 27 30" fill="none" xmlns="http://www.w3.org/2000/svg">
<rect x="0.875" y="0.492188" width="24" height="25.5" rx="3" fill="#9DA4A9"/>
<g clip-path="url(#clip0)" filter="url(#filter0_d)">
<path d="M16.3306 18.0176H11.4194C11.1065 18.0176 10.8528 18.2713 10.8528 18.5843C10.8528 18.8972 11.1065 19.1509 11.4194 19.1509H16.3305C16.6435 19.1509 16.8972 18.8972 16.8972 18.5843C16.8972 18.2713 16.6435 18.0176 16.3306 18.0176Z" fill="white"/>
<path d="M16.3306 16.2305H11.4194C11.1065 16.2305 10.8528 16.4842 10.8528 16.7971C10.8528 17.1101 11.1065 17.3638 11.4194 17.3638H16.3305C16.6435 17.3638 16.8972 17.1101 16.8972 16.7971C16.8972 16.4842 16.6435 16.2305 16.3306 16.2305Z" fill="white"/>
<path d="M21.0528 9.18811H19.2498V5.90847C19.2498 5.59554 18.9961 5.3418 18.6831 5.3418H9.06692C8.75398 5.3418 8.50024 5.5955 8.50024 5.90847V9.18811H6.69721C5.96814 9.18811 5.375 9.78129 5.375 10.5104V16.2114C5.375 16.9405 5.96814 17.5336 6.69721 17.5336H8.50034V20.5755C8.50034 20.8884 8.75405 21.1422 9.06702 21.1422H18.683C18.9959 21.1422 19.2497 20.8885 19.2497 20.5755V17.5336H21.0528C21.7819 17.5336 22.375 16.9405 22.375 16.2114V10.5104C22.375 9.78132 21.7819 9.18811 21.0528 9.18811ZM9.63357 6.47515H18.1164V9.18811H9.63357V6.47515ZM18.1163 20.0088H9.6337C9.6337 19.8981 9.6337 15.5097 9.6337 15.3727H18.1163C18.1163 15.5131 18.1163 19.9023 18.1163 20.0088ZM18.6831 12.5156H17.2406C16.9277 12.5156 16.674 12.2619 16.674 11.9489C16.674 11.6359 16.9277 11.3822 17.2406 11.3822H18.6831C18.996 11.3822 19.2498 11.6359 19.2498 11.9489C19.2498 12.2619 18.9961 12.5156 18.6831 12.5156Z" fill="white"/>
</g>
<defs>
<filter id="filter0_d" x="1.375" y="4.74219" width="25" height="25" filterUnits="userSpaceOnUse" color-interpolation-filters="sRGB">
<feFlood flood-opacity="0" result="BackgroundImageFix"/>
<feColorMatrix in="SourceAlpha" type="matrix" values="0 0 0 0 0 0 0 0 0 0 0 0 0 0 0 0 0 0 127 0"/>
<feOffset dy="4"/>
<feGaussianBlur stdDeviation="2"/>
<feColorMatrix type="matrix" values="0 0 0 0 0 0 0 0 0 0 0 0 0 0 0 0 0 0 0.25 0"/>
<feBlend mode="normal" in2="BackgroundImageFix" result="effect1_dropShadow"/>
<feBlend mode="normal" in="SourceGraphic" in2="effect1_dropShadow" result="shape"/>
</filter>
<clipPath id="clip0">
<rect width="17" height="17" fill="white" transform="translate(5.375 4.74219)"/>
</clipPath>
</defs>
</svg>
