<svg width="34" height="32" viewBox="0 0 34 32" fill="none" xmlns="http://www.w3.org/2000/svg">
<g clip-path="url(#clip0)">
<path d="M26.4328 23.8167H13.3282L12.5672 20.8652H29.7496L33.5 6.31836H8.8169L7.51779 1.2793H0.5V3.3668H5.83698L11.1355 23.9185C9.58525 24.2917 8.4325 25.6521 8.4325 27.2692C8.4325 29.173 10.0297 30.7218 11.993 30.7218C13.9561 30.7218 15.5534 29.173 15.5534 27.2692C15.5534 26.7845 15.4495 26.3231 15.2627 25.9041H23.1631C22.9764 26.3231 22.8724 26.7845 22.8724 27.2692C22.8724 29.173 24.4696 30.7218 26.4328 30.7218C28.396 30.7218 29.9933 29.173 29.9933 27.2692C29.9932 25.3656 28.396 23.8167 26.4328 23.8167ZM18.9999 18.7777H16.61L16.0761 14.6355H19V18.7777H18.9999ZM27.049 8.4058H30.7428L29.675 12.548H26.5151L27.049 8.4058ZM26.246 14.6356H29.1367L28.0689 18.7777H25.7121L26.246 14.6356ZM21.1526 8.4058H24.8795L24.3456 12.548H21.1526V8.4058H21.1526ZM21.1526 14.6355H24.0765L23.5426 18.7777H21.1526V14.6355H21.1526ZM18.9999 8.4058V12.548H15.807L15.273 8.4058H18.9999ZM9.35509 8.4058H13.1036L13.6375 12.548H10.423L9.35509 8.4058ZM10.9612 14.6355H13.9066L14.4406 18.7777H12.0291L10.9612 14.6355ZM11.993 28.6344C11.2168 28.6344 10.5852 28.022 10.5852 27.2692C10.5852 26.5166 11.2168 25.9042 11.993 25.9042C12.7692 25.9042 13.4007 26.5166 13.4007 27.2692C13.4007 28.022 12.7692 28.6344 11.993 28.6344ZM26.4328 28.6344C25.6566 28.6344 25.0251 28.022 25.0251 27.2692C25.0251 26.5166 25.6566 25.9042 26.4328 25.9042C27.209 25.9042 27.8405 26.5166 27.8405 27.2692C27.8405 28.022 27.209 28.6344 26.4328 28.6344Z" fill="#4DD0E1"/>
</g>
<defs>
<clipPath id="clip0">
<rect width="33" height="32" fill="white" transform="translate(0.5)"/>
</clipPath>
</defs>
</svg>
