<svg width="35" height="35" viewBox="0 0 35 35" fill="none" xmlns="http://www.w3.org/2000/svg">
<g clip-path="url(#clip0)">
<path d="M17.8751 34.2031C27.264 34.2031 34.8751 26.592 34.8751 17.2031C34.8751 7.81428 27.264 0.203125 17.8751 0.203125C8.48628 0.203125 0.875122 7.81428 0.875122 17.2031C0.875122 26.592 8.48628 34.2031 17.8751 34.2031Z" fill="#2196F3"/>
<path d="M26.3751 20.7179C24.5412 20.7179 22.7924 20.3184 21.1795 19.53C20.9266 19.4089 20.6334 19.3897 20.3656 19.4811C20.0979 19.5746 19.879 19.7701 19.7557 20.023L18.9907 21.6061C16.6957 20.2886 14.7917 18.3825 13.4721 16.0875L15.0574 15.3225C15.3124 15.1992 15.5057 14.9804 15.5992 14.7126C15.6906 14.4449 15.6736 14.1516 15.5504 13.8988C14.7599 12.288 14.3604 10.5391 14.3604 8.70312C14.3604 8.11663 13.8844 7.64062 13.2979 7.64062H9.37512C8.78862 7.64062 8.31262 8.11663 8.31262 8.70312C8.31262 18.663 16.4152 26.7656 26.3751 26.7656C26.9616 26.7656 27.4376 26.2896 27.4376 25.7031V21.7804C27.4376 21.1939 26.9616 20.7179 26.3751 20.7179Z" fill="#FAFAFA"/>
</g>
<defs>
<clipPath id="clip0">
<rect width="34" height="34" fill="white" transform="translate(0.875122 0.203125)"/>
</clipPath>
</defs>
</svg>
