<svg width="27" height="26" viewBox="0 0 27 26" fill="none" xmlns="http://www.w3.org/2000/svg">
<g clip-path="url(#clip0)">
<path d="M26.875 0H0.875V26H26.875V0Z" fill="#50ABF1"/>
<path d="M4.31958 19.2724C6.04994 20.3698 8.10253 21.0049 10.3028 21.0049C16.4843 21.0049 21.4951 15.9935 21.4951 9.81264C21.4951 9.65831 21.4919 9.50513 21.4859 9.35241C21.7095 9.17646 23.0923 8.06813 23.4313 7.35561C23.4313 7.35561 22.3083 7.82229 21.2093 7.93223C21.2071 7.93223 21.2045 7.93274 21.2023 7.93274C21.2023 7.93274 21.2045 7.93166 21.2082 7.92898C21.3095 7.86132 22.7253 6.89755 22.917 5.74922C22.917 5.74922 22.1227 6.17317 21.0106 6.54406C20.8265 6.60522 20.6338 6.66535 20.4351 6.72109C19.7182 5.95603 18.6993 5.47852 17.5682 5.47852C15.3988 5.47852 13.6408 7.23598 13.6408 9.40381C13.6408 9.70972 13.676 10.0075 13.7426 10.2934C13.4394 10.2809 8.82263 10.0221 5.68185 6.21858C5.68185 6.21858 3.80475 8.78115 6.80045 11.4162C6.80045 11.4162 5.8898 11.3799 5.10415 10.9105C5.10415 10.9105 4.81558 14.015 8.20813 14.8088C8.20813 14.8088 7.54058 15.0616 6.4756 14.8814C6.4756 14.8814 7.07116 17.3898 10.0853 17.6242C10.0853 17.6242 7.70186 19.7773 4.3185 19.2721L4.31958 19.2724Z" fill="white"/>
</g>
<defs>
<clipPath id="clip0">
<rect x="0.875" width="26" height="26" rx="3" fill="white"/>
</clipPath>
</defs>
</svg>
