<svg width="26" height="26" viewBox="0 0 26 26" fill="none" xmlns="http://www.w3.org/2000/svg">
<g clip-path="url(#clip0)">
<path d="M12.6469 25.8035C19.6315 25.8035 25.2937 20.1413 25.2937 13.1566C25.2937 6.17196 19.6315 0.509766 12.6469 0.509766C5.6622 0.509766 0 6.17196 0 13.1566C0 20.1413 5.6622 25.8035 12.6469 25.8035Z" fill="#6F3FAA"/>
<path d="M18.1335 7.44712C15.0552 6.70363 11.9714 5.83396 8.81451 6.93888C6.77056 7.70535 6.77056 9.91964 6.85573 11.7933C6.85573 12.3042 6.2596 12.9856 6.51505 13.5817C7.02602 15.285 7.45186 16.9882 9.24031 17.8399C9.49581 18.0102 9.24031 18.3509 9.41064 18.6064C9.32547 18.6064 9.15514 18.6915 9.15514 18.7767C9.15514 19.1849 9.33832 19.8093 9.21664 20.2118L14.6511 25.644C20.238 24.7543 24.6045 20.2065 25.2189 14.5325L18.1335 7.44712Z" fill="#512D84"/>
<path d="M19.3369 9.3986L19.3327 9.3819C18.9948 8.01579 17.4714 6.54994 16.0723 6.24498L16.0565 6.24172C13.7936 5.81005 11.4992 5.81005 9.23677 6.24172L9.22052 6.24498C7.82195 6.54994 6.29845 8.01589 5.9601 9.3819L5.95634 9.3986C5.5386 11.3063 5.5386 13.2411 5.95634 15.1489L5.9601 15.1656C6.28407 16.4733 7.69405 17.8719 9.04089 18.2565V19.7814C9.04089 20.3334 9.7135 20.6045 10.096 20.2061L11.641 18.6001C11.9762 18.6189 12.3114 18.6293 12.6466 18.6293C13.7857 18.6293 14.9253 18.5216 16.0565 18.3058L16.0723 18.3025C17.4713 17.9976 18.9948 16.5316 19.3327 15.1656L19.3368 15.1489C19.7546 13.2411 19.7546 11.3064 19.3369 9.3986ZM18.1141 14.8723C17.8885 15.7635 16.7318 16.8715 15.8127 17.0762C14.6096 17.3051 13.3968 17.4028 12.1853 17.3693C12.1612 17.3686 12.138 17.378 12.1212 17.3953C11.9493 17.5717 10.9932 18.5534 10.9932 18.5534L9.79328 19.7848C9.70555 19.8763 9.55141 19.814 9.55141 19.6878V17.1616C9.55141 17.1199 9.52162 17.0844 9.48062 17.0763C9.48037 17.0762 9.48018 17.0762 9.47993 17.0762C8.56086 16.8715 7.40456 15.7635 7.17854 14.8722C6.80255 13.1478 6.80255 11.3997 7.17854 9.67525C7.40456 8.78399 8.56086 7.67601 9.47993 7.47129C11.5813 7.07162 13.7119 7.07162 15.8128 7.47129C16.7323 7.67601 17.8886 8.78399 18.1142 9.67525C18.4906 11.3997 18.4906 13.1479 18.1141 14.8723Z" fill="white"/>
<path d="M14.6459 16.0388C14.5046 15.9959 14.37 15.9671 14.2448 15.9153C12.949 15.3776 11.7564 14.684 10.8118 13.6209C10.2746 13.0163 9.85415 12.3337 9.49876 11.6113C9.3302 11.2688 9.18817 10.9129 9.04337 10.5591C8.91137 10.2366 9.10581 9.90348 9.31054 9.66042C9.50266 9.43233 9.74992 9.25784 10.0177 9.12915C10.2266 9.02877 10.4327 9.08667 10.5854 9.26377C10.9153 9.64673 11.2184 10.0493 11.4638 10.4932C11.6147 10.7662 11.5733 11.1 11.2998 11.2858C11.2333 11.3309 11.1727 11.384 11.1108 11.435C11.0564 11.4797 11.0054 11.5248 10.9681 11.5854C10.9001 11.6961 10.8968 11.8267 10.9406 11.9471C11.2779 12.874 11.8463 13.5947 12.7793 13.983C12.9286 14.0451 13.0785 14.1174 13.2505 14.0973C13.5385 14.0637 13.6318 13.7477 13.8336 13.5827C14.0309 13.4214 14.283 13.4193 14.4955 13.5537C14.7081 13.6883 14.9141 13.8327 15.1189 13.9786C15.32 14.1219 15.5201 14.262 15.7055 14.4253C15.8838 14.5824 15.9453 14.7884 15.8448 15.0015C15.661 15.3918 15.3935 15.7164 15.0078 15.9237C14.8988 15.9821 14.7687 16.001 14.6459 16.0388C14.5046 15.9959 14.7687 16.001 14.6459 16.0388Z" fill="white"/>
<path d="M12.6497 8.68231C14.3447 8.72984 15.7369 9.85467 16.0352 11.5304C16.086 11.8159 16.1041 12.1078 16.1267 12.3976C16.1363 12.5195 16.0672 12.6353 15.9357 12.6369C15.7998 12.6386 15.7387 12.5248 15.7298 12.4031C15.7124 12.1619 15.7003 11.9196 15.667 11.6805C15.4916 10.4178 14.4848 9.3732 13.228 9.14906C13.0389 9.11532 12.8454 9.10648 12.6538 9.08637C12.5327 9.07367 12.3741 9.06636 12.3473 8.91578C12.3248 8.78956 12.4313 8.68908 12.5515 8.68261C12.5841 8.68068 12.6169 8.68221 12.6497 8.68231C14.3448 8.72984 12.6169 8.68221 12.6497 8.68231Z" fill="white"/>
<path d="M15.2257 12.0217C15.2229 12.0429 15.2215 12.0927 15.209 12.1395C15.1641 12.3096 14.906 12.3309 14.8467 12.1593C14.829 12.1083 14.8264 12.0503 14.8263 11.9955C14.8257 11.6365 14.7477 11.2779 14.5667 10.9655C14.3806 10.6445 14.0962 10.3747 13.7628 10.2113C13.5611 10.1126 13.3431 10.0512 13.1221 10.0147C13.0255 9.99868 12.9279 9.98905 12.8308 9.97551C12.7132 9.95916 12.6504 9.88422 12.656 9.76832C12.6612 9.65973 12.7406 9.58153 12.8589 9.5883C13.2479 9.61033 13.6236 9.69451 13.9695 9.8776C14.6727 10.25 15.0744 10.8378 15.1917 11.6228C15.197 11.6584 15.2055 11.6936 15.2082 11.7292C15.2148 11.8173 15.219 11.9054 15.2257 12.0217C15.2229 12.0428 15.219 11.9054 15.2257 12.0217Z" fill="white"/>
<path d="M14.1712 11.9799C14.0294 11.9825 13.9535 11.904 13.9388 11.774C13.9287 11.6834 13.9206 11.5915 13.899 11.5033C13.8564 11.3296 13.7641 11.1686 13.6179 11.0621C13.549 11.0119 13.4708 10.9753 13.3889 10.9516C13.2849 10.9215 13.1768 10.9298 13.0731 10.9044C12.9604 10.8768 12.8981 10.7855 12.9158 10.6798C12.9319 10.5836 13.0255 10.5085 13.1307 10.5162C13.7878 10.5636 14.2575 10.9033 14.3245 11.677C14.3293 11.7315 14.3349 11.7892 14.3227 11.8415C14.3019 11.9308 14.2357 11.9756 14.1712 11.9799C14.0293 11.9825 14.2357 11.9756 14.1712 11.9799Z" fill="white"/>
<path d="M19.3375 9.39887L19.3333 9.38217C19.1439 8.6164 18.5818 7.81935 17.878 7.21289L16.9266 8.05608C17.4924 8.50687 17.9771 9.13136 18.1148 9.67547C18.4913 11.3999 18.4913 13.148 18.1148 14.8725C17.8892 15.7638 16.7325 16.8718 15.8134 17.0765C14.6103 17.3053 13.3975 17.4031 12.186 17.3696C12.1618 17.3689 12.1387 17.3783 12.1219 17.3955C11.95 17.572 10.9938 18.5536 10.9938 18.5536L9.79397 19.7851C9.70623 19.8766 9.5521 19.8144 9.5521 19.6881V17.1619C9.5521 17.1201 9.52231 17.0847 9.4813 17.0766C9.48106 17.0766 9.48086 17.0765 9.48061 17.0765C8.95829 16.9602 8.35958 16.552 7.89837 16.0578L6.95825 16.8909C7.54539 17.5296 8.30267 18.0459 9.04143 18.2569V19.7818C9.04143 20.3338 9.71403 20.6048 10.0965 20.2065L11.6415 18.6005C11.9767 18.6192 12.3119 18.6297 12.6472 18.6297C13.7862 18.6297 14.9258 18.522 16.057 18.3062L16.0728 18.303C17.4719 17.998 18.9953 16.5322 19.3332 15.166L19.3374 15.1493C19.7552 13.2414 19.7552 11.3067 19.3375 9.39887Z" fill="#D1D1D1"/>
<path d="M14.6457 16.0381C14.7685 16.0003 14.5044 15.9952 14.6457 16.0381V16.0381Z" fill="white"/>
<path d="M15.7063 14.4254C15.5209 14.2621 15.3206 14.1219 15.1197 13.9787C14.9148 13.8327 14.7088 13.6883 14.4963 13.5538C14.2838 13.4193 14.0317 13.4214 13.8344 13.5827C13.6325 13.7478 13.5393 14.0637 13.2512 14.0974C13.0793 14.1174 12.9293 14.0451 12.78 13.983C12.206 13.7442 11.7705 13.379 11.4414 12.918L10.7418 13.538C10.7656 13.5655 10.7883 13.5937 10.8124 13.6209C11.7571 14.6841 12.9497 15.3777 14.2455 15.9153C14.3705 15.9672 14.5052 15.9961 14.6465 16.0389C14.5052 15.996 14.7694 16.0011 14.6465 16.0389C14.7694 16.0011 14.8994 15.9821 15.0085 15.9237C15.3943 15.7164 15.6618 15.3917 15.8455 15.0014C15.946 14.7884 15.8846 14.5824 15.7063 14.4254Z" fill="#D1D1D1"/>
<path d="M12.6501 8.68164C12.6515 8.68164 12.6529 8.68179 12.6543 8.68179C12.7484 8.68515 14.2783 8.72729 12.6501 8.68164Z" fill="white"/>
<path d="M15.0814 9.69141L14.7831 9.95576C15.2518 10.4117 15.575 11.0161 15.6674 11.6811C15.7006 11.9203 15.7128 12.1625 15.7302 12.4037C15.7391 12.5256 15.8001 12.6393 15.9361 12.6377C16.0676 12.6361 16.1367 12.5203 16.1271 12.3984C16.1045 12.1086 16.0864 11.8166 16.0356 11.5311C15.905 10.7976 15.5648 10.1697 15.0814 9.69141Z" fill="#D1D1D1"/>
<path d="M15.1918 11.6228C15.1064 11.0509 14.8691 10.5841 14.475 10.2285L14.1776 10.4921C14.3314 10.6286 14.4644 10.7889 14.5669 10.9657C14.7479 11.2781 14.8259 11.6367 14.8265 11.9957C14.8266 12.0505 14.8292 12.1085 14.8469 12.1595C14.9063 12.3313 15.1643 12.31 15.2092 12.1398C15.2217 12.0928 15.2231 12.0431 15.2259 12.022C15.2231 12.0432 15.2191 11.9058 15.2259 12.022C15.2191 11.9058 15.215 11.8175 15.2083 11.7294C15.2057 11.6936 15.1971 11.6584 15.1918 11.6228Z" fill="#D1D1D1"/>
<path d="M15.2264 12.0219C15.2197 11.9056 15.2236 12.043 15.2264 12.0219V12.0219Z" fill="white"/>
<path d="M14.1722 11.9801C14.1744 11.9799 14.1766 11.9788 14.1787 11.9785C14.1727 11.9785 14.1635 11.9787 14.1541 11.979C14.1602 11.9792 14.1658 11.9801 14.1722 11.9801Z" fill="white"/>
<path d="M14.1719 11.9796C14.1656 11.9797 14.1599 11.9787 14.1538 11.9785C14.1231 11.9794 14.0914 11.981 14.1719 11.9796Z" fill="white"/>
<path d="M14.1781 11.9785C14.176 11.9788 14.174 11.9798 14.172 11.98C14.1877 11.9789 14.1864 11.9785 14.1781 11.9785Z" fill="white"/>
<path d="M13.8731 10.7617L13.5704 11.0301C13.5871 11.0402 13.6035 11.0508 13.6193 11.0623C13.7654 11.1687 13.8578 11.3297 13.9004 11.5034C13.922 11.5917 13.93 11.6835 13.9402 11.7742C13.9542 11.8983 14.0247 11.9746 14.1544 11.9791C14.1639 11.9788 14.1732 11.9786 14.179 11.9786C14.2415 11.9717 14.3041 11.9279 14.3241 11.8415C14.3362 11.7893 14.3307 11.7316 14.3259 11.677C14.2882 11.2445 14.1247 10.9477 13.8731 10.7617Z" fill="#D1D1D1"/>
</g>
<defs>
<clipPath id="clip0">
<rect width="25.2937" height="25.2937" fill="white" transform="translate(0 0.509766)"/>
</clipPath>
</defs>
</svg>
