<svg width="26" height="27" viewBox="0 0 26 27" fill="none" xmlns="http://www.w3.org/2000/svg">
<g clip-path="url(#clip0)">
<path d="M12.9296 26.1629C19.9143 26.1629 25.5765 20.5007 25.5765 13.516C25.5765 6.53134 19.9143 0.869141 12.9296 0.869141C5.94497 0.869141 0.282776 6.53134 0.282776 13.516C0.282776 20.5007 5.94497 26.1629 12.9296 26.1629Z" fill="#4D76A1"/>
<path d="M19.4873 10.7362C18.7806 11.8659 18.2791 13.0671 17.7406 14.282C16.9799 13.5559 16.3647 12.9959 16.3647 12.9959H14.2554L11.4478 10.6426L13.0249 15.5983L8.50116 12.7939L6.0733 13.9287L13.1252 19.8399C11.7078 18.6518 10.1703 18.9205 11.7078 20.2L17.7073 25.229C22.1769 23.6991 25.3678 20.0875 25.5657 15.8313L19.4873 10.7362Z" fill="#346394"/>
<path fill-rule="evenodd" clip-rule="evenodd" d="M11.7572 20.1247H12.8694C12.8694 20.1247 13.2053 20.0878 13.3768 19.9029C13.5347 19.7332 13.5297 19.4144 13.5297 19.4144C13.5297 19.4144 13.5079 17.9221 14.2005 17.7023C14.8833 17.4859 15.76 19.1446 16.6893 19.7824C17.392 20.2651 17.926 20.1593 17.926 20.1593L20.4107 20.1247C20.4107 20.1247 21.7105 20.0446 21.0942 19.0226C21.0437 18.939 20.7353 18.2666 19.2468 16.885C17.6888 15.4389 17.8974 15.6728 19.7742 13.1714C20.9171 11.648 21.3741 10.718 21.2314 10.3197C21.0952 9.94028 20.2546 10.0406 20.2546 10.0406L17.4569 10.058C17.4569 10.058 17.2495 10.0297 17.0957 10.1216C16.9454 10.2118 16.8487 10.422 16.8487 10.422C16.8487 10.422 16.4059 11.6008 15.8153 12.6033C14.5696 14.7188 14.0715 14.8304 13.8679 14.6991C13.3943 14.3929 13.5125 13.4692 13.5125 12.813C13.5125 10.763 13.8234 9.9082 12.907 9.68693C12.6029 9.61343 12.3791 9.56493 11.6014 9.5571C10.6032 9.54674 9.75824 9.56013 9.27984 9.79453C8.96158 9.95038 8.71606 10.2977 8.86559 10.3176C9.05049 10.3424 9.46928 10.4306 9.69131 10.7329C9.978 11.1229 9.96789 11.9989 9.96789 11.9989C9.96789 11.9989 10.1326 14.4121 9.5832 14.7119C9.20608 14.9175 8.68878 14.4977 7.57815 12.5786C7.00906 11.5955 6.57941 10.5089 6.57941 10.5089C6.57941 10.5089 6.49656 10.3058 6.34879 10.1972C6.16946 10.0656 5.91889 10.0236 5.91889 10.0236L3.26039 10.0411C3.26039 10.0411 2.86129 10.0522 2.71479 10.2257C2.58446 10.38 2.70444 10.6993 2.70444 10.6993C2.70444 10.6993 4.78577 15.5687 7.14243 18.0226C9.30333 20.2724 11.7572 20.1247 11.7572 20.1247Z" fill="white"/>
</g>
<defs>
<clipPath id="clip0">
<rect width="25.2937" height="25.2937" fill="white" transform="translate(0.282776 0.869141)"/>
</clipPath>
</defs>
</svg>
