<svg width="27" height="26" viewBox="0 0 27 26" fill="none" xmlns="http://www.w3.org/2000/svg">
<g clip-path="url(#clip0)">
<path d="M26.875 0H0.875V26H26.875V0Z" fill="#44678D"/>
<path d="M7.61047 7.91146C8.23359 9.45024 9.02329 10.9011 10.0634 12.2035C10.2013 12.3768 10.3752 12.5309 10.5584 12.6564C10.826 12.8401 11.0784 12.7755 11.1872 12.4695C11.3023 12.1483 11.4079 11.4973 11.4142 11.16C11.4314 10.2787 11.4116 9.7011 11.3643 8.82085C11.3336 8.25707 11.1332 7.76204 10.3039 7.61262C10.0478 7.5663 10.024 7.35549 10.1885 7.1452C10.531 6.70739 11.0082 6.63762 11.5257 6.61001C12.3643 6.56471 13.2061 6.60168 14.0457 6.61001C14.3878 6.61314 14.7318 6.6407 15.0687 6.71412C15.508 6.80991 15.7433 7.1181 15.8157 7.54701C15.8532 7.76826 15.8725 7.99572 15.8672 8.21959C15.8454 9.18159 15.799 10.1431 15.7881 11.1046C15.7834 11.482 15.811 11.8688 15.8917 12.2363C16.0046 12.7485 16.3534 12.8771 16.71 12.507C17.1629 12.0369 17.5622 11.508 17.937 10.9708C18.6179 9.99371 19.1264 8.92138 19.5642 7.81573C19.7907 7.24521 19.9641 7.1213 20.5778 7.11976C21.7313 7.11713 22.8849 7.11611 24.0385 7.11976C24.2431 7.12079 24.457 7.14007 24.6501 7.20151C24.9635 7.30147 25.0879 7.55706 25.0145 7.88139C24.8432 8.64143 24.4325 9.28742 23.9927 9.90848C23.2868 10.9048 22.5471 11.8773 21.8246 12.8621C21.7324 12.9876 21.6512 13.1214 21.5757 13.2572C21.3055 13.7455 21.3243 14.0193 21.7183 14.4259C22.3456 15.0729 23.0172 15.6783 23.6246 16.3431C24.0661 16.8267 24.4747 17.3514 24.8245 17.9037C25.267 18.6023 24.9937 19.2603 24.1671 19.3774C23.6471 19.4508 21.1068 19.378 20.9755 19.3774C20.2926 19.3743 19.6939 19.1374 19.2118 18.6736C18.6757 18.1572 18.1884 17.5908 17.6736 17.052C17.5184 16.8896 17.3529 16.734 17.1744 16.5981C16.7532 16.2769 16.3399 16.3482 16.1431 16.8428C15.975 17.2676 15.8297 18.3831 15.8229 18.4784C15.7876 18.9765 15.4705 19.2941 14.9125 19.3248C13.3013 19.4122 11.7401 19.2326 10.2857 18.4534C9.05301 17.7933 8.06865 16.8599 7.21596 15.7715C5.86145 14.0426 4.79157 12.1421 3.8148 10.1859C3.76488 10.0859 2.77555 7.98072 2.74897 7.88128C2.6606 7.54833 2.74304 7.23027 3.02435 7.12079C3.19973 7.05255 6.46158 7.12056 6.51583 7.12347C7.03631 7.15165 7.39123 7.37124 7.61047 7.91146Z" fill="white"/>
</g>
<defs>
<clipPath id="clip0">
<rect x="0.875" width="26" height="26" rx="3" fill="white"/>
</clipPath>
</defs>
</svg>
