<svg width="26" height="26" viewBox="0 0 26 26" fill="none" xmlns="http://www.w3.org/2000/svg">
<g clip-path="url(#clip0)">
<path d="M12.9296 25.8035C19.9143 25.8035 25.5765 20.1413 25.5765 13.1566C25.5765 6.17196 19.9143 0.509766 12.9296 0.509766C5.94497 0.509766 0.282776 6.17196 0.282776 13.1566C0.282776 20.1413 5.94497 25.8035 12.9296 25.8035Z" fill="#75B73B"/>
<path d="M18.0793 8.01107C17.346 7.82769 16.2677 7.19436 15.5697 6.94048C12.8444 6.08884 9.18239 6.77014 8.16041 9.92124C8.07524 10.0064 7.9049 10.0064 7.81974 10.0064C5.77578 12.391 7.13843 15.2866 6.9681 17.9267C6.90995 18.8573 6.42058 19.6803 5.7908 20.3764L11.0907 25.6708C11.6912 25.7582 12.3049 25.8043 12.9296 25.8043C19.1758 25.8043 24.3638 21.2759 25.3911 15.3232L18.0793 8.01107Z" fill="#52891D"/>
<path d="M12.5754 5.86782C8.72059 6.0512 5.67867 9.26153 5.69028 13.1206C5.69384 14.2959 5.9776 15.4053 6.47824 16.3858L5.70969 20.1163C5.66815 20.3182 5.85014 20.4949 6.05062 20.4473L9.7061 19.5813C10.6453 20.0492 11.7002 20.3193 12.8165 20.3364C16.7565 20.3966 20.0416 17.2683 20.1646 13.3298C20.2961 9.10799 16.8118 5.66601 12.5754 5.86782ZM16.9372 17.1062C15.8667 18.1767 14.4432 18.7663 12.9292 18.7663C12.0428 18.7663 11.1939 18.5674 10.4065 18.1752L9.89754 17.9215L7.65618 18.4524L8.12791 16.1624L7.8772 15.6712C7.46835 14.8706 7.26106 14.0049 7.26106 13.0981C7.26106 11.5841 7.85067 10.1607 8.92116 9.09015C9.98211 8.0291 11.4287 7.43005 12.9293 7.43005C14.4432 7.43005 15.8667 8.01966 16.9371 9.09015C18.0076 10.1606 18.5972 11.5841 18.5972 13.098C18.5973 14.5986 17.9982 16.0452 16.9372 17.1062Z" fill="white"/>
<path d="M16.4428 14.6684L15.0406 14.2659C14.8563 14.2131 14.6578 14.2654 14.5234 14.4022L14.1805 14.7515C14.0359 14.8989 13.8166 14.9462 13.6252 14.8688C12.9619 14.6003 11.5665 13.3596 11.2104 12.7393C11.1074 12.5602 11.1245 12.3365 11.2508 12.173L11.55 11.7857C11.6673 11.6341 11.692 11.4302 11.6145 11.2548L11.0246 9.92059C10.8833 9.60106 10.4749 9.50798 10.2081 9.73365C9.81682 10.0647 9.35249 10.5676 9.29612 11.1248C9.19658 12.1073 9.61798 13.3456 11.211 14.8326C13.0516 16.5507 14.5256 16.7775 15.4854 16.5451C16.0298 16.4134 16.4648 15.8849 16.7392 15.452C16.9265 15.1568 16.7785 14.7649 16.4428 14.6684Z" fill="white"/>
<path d="M17.8697 7.80664L16.7718 8.93192C16.8277 8.98354 16.8833 9.03546 16.9374 9.08956C18.0079 10.16 18.5975 11.5835 18.5975 13.0974C18.5975 14.598 17.9983 16.0445 16.9374 17.1055C15.8669 18.176 14.4434 18.7656 12.9294 18.7656C12.0429 18.7656 11.1942 18.5667 10.4066 18.1745L9.89771 17.9209L7.65635 18.4518L7.70269 18.2269L5.71802 20.2608C5.76179 20.3924 5.90105 20.4819 6.05069 20.4465L9.70618 19.5805C10.6454 20.0484 11.7002 20.3185 12.8166 20.3355C16.7566 20.3958 20.0418 17.2674 20.1646 13.3289C20.2326 11.1486 19.336 9.17641 17.8697 7.80664Z" fill="#D1D1D1"/>
<path d="M16.4427 14.6675L15.0405 14.2649C14.8563 14.2121 14.6577 14.2644 14.5234 14.4013L14.1804 14.7505C14.0359 14.898 13.8165 14.9452 13.6252 14.8678C13.242 14.7128 12.6148 14.2333 12.0846 13.7363L11.1098 14.7355C11.1432 14.7675 11.1766 14.7995 11.211 14.8317C13.0516 16.5498 14.5256 16.7766 15.4854 16.5442C16.0298 16.4124 16.4648 15.8839 16.7392 15.4511C16.9264 15.1558 16.7784 14.764 16.4427 14.6675Z" fill="#D1D1D1"/>
</g>
<defs>
<clipPath id="clip0">
<rect width="25.2937" height="25.2937" fill="white" transform="translate(0.282776 0.509766)"/>
</clipPath>
</defs>
</svg>
